# xmcd
#
# Track frame offsets: 
#        150
#        24180
#        46436
#        69501
#        74424
#        91341
#        93647
#        109478
#        125019
#        147607
#        151633
#        168833
#        173270
#        190280
#        196891
#        213328
#        226183
#        245210
#        261626
#        281701
#        287735
#        328575
#        330199
#
# Disc length: 4736 seconds
#
# Revision: 1
# Processed by: cddbd v1.5.2PL0 Copyright (c) Steve Scherf et al.
# Submitted via: ExactAudioCopy v0.99pb5
#
DISCID=55127e17
DTITLE=Lucinda Williams - LA [3 Car Wheels on a Gravel Road]
DYEAR=2007
DGENRE=Folk/Rock
TTITLE0=Right In Time
TTITLE1=Car Wheels on a Gravel Road
TTITLE2=2 Kool 2 Be 4-gotten
TTITLE3="This is a song that was inspired"
TTITLE4=Drunken Angel
TTITLE5="There's something about Steve Earle"
TTITLE6=Concrete and Barbed Wire
TTITLE7="This was written about " \\ Lake Charles [take 1]
TTITLE8=Lake Charles
TTITLE9="I asked him to turn up"
TTITLE10=Can't Let Go
TTITLE11="This is a song I wrote a long time ago"
TTITLE12=I Lost It
TTITLE13="This is the coolest thing"
TTITLE14=Metal Firecracker
TTITLE15="Anywhere near the stage"
TTITLE16=Greenville [w. Allison Moorer and Mike Campbell]
TTITLE17="By the way, let me introduce the band"
TTITLE18=Still I Long For Your Kiss
TTITLE19="I'm going to give up my guitar"
TTITLE20=Joy
TTITLE21=(applause)
TTITLE22=Jackson
EXTD=
EXTT0=
EXTT1=
EXTT2=
EXTT3=
EXTT4=
EXTT5=
EXTT6=
EXTT7=
EXTT8=
EXTT9=
EXTT10=
EXTT11=
EXTT12=
EXTT13=
EXTT14=
EXTT15=
EXTT16=
EXTT17=
EXTT18=
EXTT19=
EXTT20=
EXTT21=
EXTT22=
PLAYORDER=
